<svg width="421" height="97" viewBox="0 0 421 97" fill="none" xmlns="http://www.w3.org/2000/svg">
<path d="M35.2188 69.1406V75H0.15625V69.1406H5.26562C6.32812 69.1406 7.20312 68.6719 7.89062 67.7344C8.60938 66.7656 8.96875 65.6406 8.96875 64.3594V17.3906C8.96875 15.6719 8.51562 14.4062 7.60938 13.5938C6.73438 12.75 5.65625 12.3281 4.375 12.3281H0.15625V6.46875H35.2188V12.3281H31.6562C29.3438 12.3281 28.1875 13.8594 28.1875 16.9219V35.9062H48.625V17.2031C48.625 13.9531 47.2812 12.3281 44.5938 12.3281H41.6406V6.46875H76.6562V12.3281H71.5938C69.0938 12.3281 67.8438 13.9531 67.8438 17.2031V64.1719C67.8438 65.6406 68.1875 66.8438 68.875 67.7812C69.5938 68.6875 70.5 69.1406 71.5938 69.1406H76.6562V75H41.6406V69.1406H44.6875C46.0312 69.1406 47.0156 68.6562 47.6406 67.6875C48.2969 66.6875 48.625 65.375 48.625 63.75V42.5625H28.1875V64.3594C28.1875 65.6406 28.4688 66.7656 29.0312 67.7344C29.625 68.6719 30.5 69.1406 31.6562 69.1406H35.2188ZM109.234 75.9375C100.172 75.9375 93.4375 73.625 89.0312 69C84.6562 64.375 82.4688 57.8594 82.4688 49.4531C82.4688 40.4219 84.6875 33.6094 89.125 29.0156C93.5938 24.4219 99.9219 22.125 108.109 22.125C115.641 22.125 121.562 24.0938 125.875 28.0312C130.219 31.9375 132.391 37.7031 132.391 45.3281V50.625H101.266C101.422 56.625 102.562 61 104.688 63.75C106.844 66.5 109.969 67.875 114.062 67.875C117.312 67.875 119.906 67.0469 121.844 65.3906C123.812 63.7344 125.312 61.625 126.344 59.0625C127.562 59.375 128.562 59.9688 129.344 60.8438C130.156 61.7188 130.562 62.75 130.562 63.9375C130.562 65.875 129.859 67.7656 128.453 69.6094C127.047 71.4844 124.766 73.0156 121.609 74.2031C118.484 75.3594 114.359 75.9375 109.234 75.9375ZM101.5 43.7812H114.062C114.062 39.0312 113.625 35.4062 112.75 32.9062C111.875 30.375 110.484 29.1094 108.578 29.1094C106.578 29.1094 104.891 30.3594 103.516 32.8594C102.172 35.3281 101.5 38.9688 101.5 43.7812ZM139.984 96.2344H137.781V89.8594C142.375 89.8594 145.984 89.2812 148.609 88.125C151.297 86.9375 153.406 85.2969 154.938 83.2031C156.5 81.1406 157.766 78.7969 158.734 76.1719L141.812 33.6094C141.125 31.7656 140.359 30.6094 139.516 30.1406C138.672 29.6406 137.547 29.3906 136.141 29.3906H135.672V23.5312H166.703V29.3906H166.188C164.156 29.3906 162.719 29.6719 161.875 30.2344C161.031 30.7656 160.609 31.5469 160.609 32.5781C160.609 33.2031 160.703 33.875 160.891 34.5938C161.109 35.2812 161.344 35.9844 161.594 36.7031L166.703 51.75C167.328 53.5625 167.828 55.3281 168.203 57.0469C168.609 58.7656 168.844 60.2031 168.906 61.3594C169.281 58.6406 169.719 56.5625 170.219 55.125L175.984 37.7344C176.172 37.2344 176.391 36.4062 176.641 35.25C176.922 34.0938 177.062 33.2031 177.062 32.5781C177.062 31.3594 176.641 30.5469 175.797 30.1406C174.953 29.7031 173.609 29.4531 171.766 29.3906H171.297V23.5312H192.484V29.3906H192.109C188.797 29.5781 186.375 31.7969 184.844 36.0469L170.312 74.7188C168.719 78.9375 167.188 82.4375 165.719 85.2188C164.25 88 162.5 90.2031 160.469 91.8281C158.406 93.4219 155.75 94.5469 152.5 95.2031C149.281 95.8906 145.109 96.2344 139.984 96.2344Z" fill="black"/>
<path d="M227.266 69.1406V75H194.359V69.1406H195.438C197.219 69.1406 198.672 68.6719 199.797 67.7344C200.922 66.7656 201.484 65 201.484 62.4375V13.2656C201.484 11.6719 201.078 10.5 200.266 9.75C199.453 9.03125 198.562 8.54688 197.594 8.29688C196.656 8.01562 195.938 7.875 195.438 7.875H194.359V2.0625H220.188V62.4375C220.188 65 220.75 66.7656 221.875 67.7344C223 68.6719 224.453 69.1406 226.234 69.1406H227.266ZM246.391 15.5625C243.516 15.5625 241.094 14.9062 239.125 13.5938C237.188 12.2812 236.219 10.4062 236.219 7.96875C236.219 5.4375 237.188 3.54688 239.125 2.29688C241.094 1.04688 243.516 0.421875 246.391 0.421875C249.141 0.421875 251.531 1.04688 253.562 2.29688C255.625 3.54688 256.656 5.4375 256.656 7.96875C256.656 10.4062 255.625 12.2812 253.562 13.5938C251.531 14.9062 249.141 15.5625 246.391 15.5625ZM263.312 69.1406V75H230.359V69.1406H231.531C233.312 69.1406 234.766 68.6406 235.891 67.6406C237.016 66.6094 237.578 64.75 237.578 62.0625V35.7188C237.578 33.375 237 31.7344 235.844 30.7969C234.688 29.8594 233.25 29.3906 231.531 29.3906H229.703V23.5312H256.188V62.4375C256.188 65 256.75 66.7656 257.875 67.7344C259 68.6719 260.453 69.1406 262.234 69.1406H263.312ZM298.797 69.1406V75H266.641V69.1406H267.016C269.203 69.1406 270.859 68.7812 271.984 68.0625C273.109 67.3125 273.672 65.5312 273.672 62.7188V35.4375C273.672 32.875 273.172 31.2344 272.172 30.5156C271.172 29.7656 269.609 29.3906 267.484 29.3906H267.109V23.5312H290.734L292 29.6719H292.469C293.688 27.7031 295.344 25.9531 297.438 24.4219C299.562 22.8906 302.734 22.125 306.953 22.125C312.078 22.125 315.953 23.5781 318.578 26.4844C321.203 29.3906 322.516 34.0469 322.516 40.4531V62.4375C322.516 65.375 322.906 67.2344 323.688 68.0156C324.5 68.7656 326 69.1406 328.188 69.1406H328.562V75H303.906V44.5781C303.906 40.4219 303.562 37.25 302.875 35.0625C302.188 32.8125 300.797 31.6875 298.703 31.6875C297.016 31.6875 295.734 32.3594 294.859 33.7031C293.953 35.0469 293.312 36.8281 292.938 39.0469C292.562 41.2656 292.375 43.625 292.375 46.125V63C292.375 65.625 292.844 67.3125 293.781 68.0625C294.75 68.7812 296.297 69.1406 298.422 69.1406H298.797ZM366.344 69.1406V75H332.359V69.1406H333.812C334.281 69.1406 335.047 69.0156 336.109 68.7656C337.078 68.5156 337.938 67.9844 338.688 67.1719C339.469 66.3594 339.859 65.0938 339.859 63.375V13.2656C339.859 11.6719 339.469 10.5 338.688 9.75C337.906 9.03125 337.016 8.54688 336.016 8.29688C335.047 8.01562 334.312 7.875 333.812 7.875H332.359V2.0625H358.562V38.625C358.562 40.2188 358.5 41.8906 358.375 43.6406C358.25 45.3594 358.125 46.6562 358 47.5312L370.188 33.7031C370.438 33.3281 370.594 32.9844 370.656 32.6719C370.719 32.3594 370.75 32.125 370.75 31.9688C370.75 31.1562 370.281 30.4531 369.344 29.8594C368.438 29.2344 367.188 28.9219 365.594 28.9219V23.5312H391.984V28.9219C389.734 28.9219 387.531 29.4844 385.375 30.6094C383.25 31.7344 380.938 33.7031 378.438 36.5156L373.75 41.9531L386.5 60.9844C387.406 62.3281 388.234 63.5156 388.984 64.5469C389.766 65.5469 390.5 66.3906 391.188 67.0781C392.562 68.4531 393.844 69.1406 395.031 69.1406H395.453V75H394.094C390.062 75 386.672 74.8594 383.922 74.5781C381.172 74.2969 378.859 73.7656 376.984 72.9844C375.078 72.2031 373.438 71.1562 372.062 69.8438C370.688 68.5312 369.359 66.8281 368.078 64.7344L361.141 53.3906L358.562 55.875V63C358.562 64.7812 358.953 66.1094 359.734 66.9844C360.484 67.8594 361.328 68.4375 362.266 68.7188C363.203 69 363.953 69.1406 364.516 69.1406H366.344ZM411.203 75.8438C408.578 75.8438 406.375 75.2344 404.594 74.0156C402.844 72.7656 401.969 70.5312 401.969 67.3125C401.969 64.0625 402.844 61.8281 404.594 60.6094C406.375 59.3906 408.578 58.7812 411.203 58.7812C413.609 58.7812 415.734 59.3906 417.578 60.6094C419.453 61.8281 420.391 64.0625 420.391 67.3125C420.391 70.5312 419.453 72.7656 417.578 74.0156C415.734 75.2344 413.609 75.8438 411.203 75.8438Z" fill="#008000"/>
</svg>
